<svg id="Layer_1" data-name="Layer 1" xmlns="http://www.w3.org/2000/svg" viewBox="0 0 752.18 43.68"><defs><style>.cls-1{fill:#3d3082;}.cls-2{fill:#e6310b;}.cls-3{fill:#412c28;}.cls-4{fill:#009c57;}.cls-5{fill:#3ca4dd;}.cls-6{fill:#f49200;}.cls-7{fill:#a2c72d;}.cls-8{fill:#a07d23;}.cls-9{fill:#e93081;}.cls-10{fill:#9d3828;}.cls-11{fill:#a5d8d6;}.cls-12{fill:#5cb239;}.cls-13{fill:#e82f81;}.cls-14{fill:#9e1779;}.cls-15{fill:#442a37;}.cls-16{fill:#791312;}.cls-17{fill:#e5200c;}.cls-18{fill:#f9c7c1;}.cls-19{fill:#3ea4dd;}.cls-20{fill:#158f41;}.cls-21{fill:#9e1777;}.cls-22{fill:#1abecb;}.cls-23{fill:#f7941d;}.cls-24{fill:#f7931e;}.cls-25{fill:#6b7840;}.cls-26{fill:#ee3e8a;}.cls-27{fill:#70417b;}.cls-28{fill:#99ca47;}.cls-29{fill:#9c2584;}.cls-30{fill:#00a361;}.cls-31{fill:#3d2f82;}.cls-32{fill:#28b9cb;}.cls-33{fill:#2ab9cb;}.cls-34{fill:#6d2b28;}.cls-35{fill:#00a341;}.cls-36{fill:#a26439;}.cls-37{fill:#47553c;}</style></defs><rect class="cls-1" x="3.82" y="1.86" width="27.86" height="7.63"/><rect class="cls-2" x="13.93" y="9.5" width="7.63" height="29.39"/><path class="cls-3" d="M152.41,358.39a3.82,3.82,0,0,0-3.82,3.82V366h7.64v-3.82a3.82,3.82,0,0,0-3.82-3.82" transform="translate(-134.66 -356.53)"/><path class="cls-4" d="M162.53,362.21a3.82,3.82,0,1,1,3.81,3.82,3.81,3.81,0,0,1-3.81-3.82Z" transform="translate(-134.66 -356.53)"/><path class="cls-5" d="M134.66,362.21a3.82,3.82,0,1,1,3.82,3.82,3.82,3.82,0,0,1-3.82-3.82Z" transform="translate(-134.66 -356.53)"/><circle class="cls-6" cx="17.75" cy="38.89" r="3.82"/><path class="cls-6" d="M174.77,383.82h0a9.6,9.6,0,0,0,.72,3.77,7,7,0,0,0,1.94,2.68,7.21,7.21,0,0,0,2,1.18,10,10,0,0,0,3.82.68h0a8.69,8.69,0,0,0,3-.6,9.16,9.16,0,0,0,2.72-1.65l5.09,5.68a16.36,16.36,0,0,1-5,3.08,16,16,0,0,1-5.82,1.12h0a18,18,0,0,1-5.72-.88,15,15,0,0,1-4.72-2.55,14.55,14.55,0,0,1-2.42-2.48,15.11,15.11,0,0,1-2.18-4,17.42,17.42,0,0,1-1-6Z" transform="translate(-134.66 -356.53)"/><path class="cls-7" d="M182.47,367.87h0c-8.36,0-15.31,7.16-15.31,15.95h7.63c0-4.62,3.57-8.31,7.69-8.31a7.39,7.39,0,0,1,7.1,4.49l8.4,3.82c0-8.9-6.43-15.95-15.49-15.95" transform="translate(-134.66 -356.53)"/><path class="cls-8" d="M171,380a3.82,3.82,0,0,0-3.82,3.82h0A3.82,3.82,0,1,0,171,380" transform="translate(-134.66 -356.53)"/><path class="cls-9" d="M189.56,380" transform="translate(-134.66 -356.53)"/><path class="cls-9" d="M189.56,380h-8.62a3.82,3.82,0,1,0,0,7.63h13.21Z" transform="translate(-134.66 -356.53)"/><path class="cls-10" d="M194.15,380h-4.59l0,.07a9.46,9.46,0,0,1,.74,3.75,3.81,3.81,0,0,0,3.82,3.81h0a3.81,3.81,0,0,0,3.81-3.81h0a3.82,3.82,0,0,0-3.81-3.82" transform="translate(-134.66 -356.53)"/><circle class="cls-5" cx="56.87" cy="36.19" r="3.82"/><path class="cls-11" d="M225.52,377.6c-5.51-5-14.64-1.24-14.64,6.12h-7.63c0-14,17-21.13,27.38-11.79Z" transform="translate(-134.66 -356.53)"/><path class="cls-7" d="M225.41,389.94a9,9,0,0,1-5.83,2.15,9,9,0,0,1-3.42-.67,8.63,8.63,0,0,1-3.82-3.06,8.06,8.06,0,0,1-1.46-4.64h-7.63a15.45,15.45,0,0,0,1.3,6.26,16.33,16.33,0,0,0,10.2,9,16.46,16.46,0,0,0,4.83.71h0a16.43,16.43,0,0,0,10.83-4Z" transform="translate(-134.66 -356.53)"/><path class="cls-12" d="M207.06,379.9a3.81,3.81,0,0,0-3.81,3.82h0a3.82,3.82,0,1,0,7.63,0h0a3.82,3.82,0,0,0-3.82-3.82" transform="translate(-134.66 -356.53)"/><path class="cls-5" d="M224.09,392.82a3.82,3.82,0,1,1,3.82,3.81,3.82,3.82,0,0,1-3.82-3.81Z" transform="translate(-134.66 -356.53)"/><circle class="cls-13" cx="93.41" cy="18.23" r="3.82"/><polyline class="cls-4" points="103.07 4.25 103.07 38.86 110.7 38.86 110.7 4.25"/><path class="cls-14" d="M258,381.77c0-6.72-9.54-8.24-12.13-2.3a5.84,5.84,0,0,0-.47,2.3h0V369.6c9.22-4.59,20.21,1.92,20.24,12.12Z" transform="translate(-134.66 -356.53)"/><path class="cls-15" d="M245.37,369.6a13.82,13.82,0,0,0-5.22,4.49,13.38,13.38,0,0,0-1.78,3.59,13.51,13.51,0,0,0-.64,4.09,3.82,3.82,0,0,0,7.64,0V369.6" transform="translate(-134.66 -356.53)"/><path class="cls-2" d="M265.61,395.43V381.77H258v13.66" transform="translate(-134.66 -356.53)"/><path class="cls-16" d="M261.79,378a3.82,3.82,0,0,0-3.82,3.82h0a3.82,3.82,0,0,0,7.64,0h0v0a3.82,3.82,0,0,0-3.82-3.77" transform="translate(-134.66 -356.53)"/><circle class="cls-13" cx="106.89" cy="4.25" r="3.82"/><circle class="cls-5" cx="127.13" cy="38.89" r="3.82"/><circle class="cls-7" cx="106.89" cy="38.89" r="3.82"/><path class="cls-6" d="M275.77,399.21a3.81,3.81,0,0,1-3.81-3.82V371.85a3.82,3.82,0,1,1,7.63,0v23.54A3.82,3.82,0,0,1,275.77,399.21Z" transform="translate(-134.66 -356.53)"/><path class="cls-9" d="M299.83,381.77c0-10.52-11.57-17-20.79-11.89a3.79,3.79,0,0,1,.55,2v9.92c0-6.81,10.23-8.4,12.33-1.77a5.66,5.66,0,0,1,.28,1.77Z" transform="translate(-134.66 -356.53)"/><path class="cls-17" d="M279,369.88a13.87,13.87,0,0,0-4.67,4.21,13.38,13.38,0,0,0-1.78,3.59,13.21,13.21,0,0,0-.63,4.09,3.82,3.82,0,0,0,7.63,0v-9.92a3.79,3.79,0,0,0-.55-2" transform="translate(-134.66 -356.53)"/><rect class="cls-7" x="157.53" y="25.24" width="7.62" height="13.96"/><path class="cls-10" d="M296,378a3.81,3.81,0,0,0-3.81,3.82h0a3.82,3.82,0,0,0,7.63,0h0A3.82,3.82,0,0,0,296,378" transform="translate(-134.66 -356.53)"/><circle class="cls-5" cx="296.01" cy="395.42" r="3.82" transform="translate(-276.38 267.74) rotate(-80.78)"/><circle class="cls-14" cx="275.77" cy="395.42" r="3.82" transform="translate(-293.38 247.76) rotate(-80.78)"/><rect class="cls-13" x="172.06" y="15.82" width="7.63" height="23.06"/><circle class="cls-6" cx="175.88" cy="4.25" r="3.82"/><circle class="cls-4" cx="175.88" cy="38.89" r="3.82"/><circle class="cls-18" cx="175.88" cy="15.82" r="3.82"/><path class="cls-11" d="M343.21,377.6c-5.51-5-14.64-1.24-14.64,6.12h-7.64c0-14,17-21.13,27.39-11.79Z" transform="translate(-134.66 -356.53)"/><path class="cls-7" d="M343.1,389.94a9,9,0,0,1-5.83,2.15,9,9,0,0,1-3.42-.67,8.63,8.63,0,0,1-3.82-3.06,8.06,8.06,0,0,1-1.46-4.64h-7.64a15.63,15.63,0,0,0,1.31,6.26,16.06,16.06,0,0,0,5.93,7,16.49,16.49,0,0,0,9.1,2.71h0a16.38,16.38,0,0,0,10.82-4Z" transform="translate(-134.66 -356.53)"/><path class="cls-12" d="M324.75,379.9a3.82,3.82,0,0,0-3.82,3.82h0a3.82,3.82,0,0,0,7.64,0h0a3.82,3.82,0,0,0-3.82-3.82" transform="translate(-134.66 -356.53)"/><circle class="cls-5" cx="210.93" cy="36.29" r="3.82"/><circle class="cls-13" cx="211.1" cy="18.23" r="3.82"/><path class="cls-7" d="M379,371.54a15.23,15.23,0,0,0-9.44-3.28v7.64a7.72,7.72,0,0,1,6.47,3.54c3.55,5.38-.2,12.68-6.47,12.68v7.63a15.27,15.27,0,0,0,9.46-3.29l.45-.38V371.93l-.47-.39Z" transform="translate(-134.66 -356.53)"/><path class="cls-19" d="M386.56,372.38l-7.53-.84h0a3.25,3.25,0,0,0-.1.83c0,24.84-.06,23.45.12,24.07h0l7.5-.92V372.38Z" transform="translate(-134.66 -356.53)"/><path class="cls-20" d="M379,371.54a3.86,3.86,0,0,0-.09.84c0,25-.05,23.43.11,24.08a15.94,15.94,0,0,0,0-24.92" transform="translate(-134.66 -356.53)"/><polyline class="cls-6" points="234.91 11.73 234.91 11.73 234.91 11.73"/><path class="cls-6" d="M369.57,392.12h0a8.12,8.12,0,0,1,0-16.22v-7.64c-11.1,0-18.5,11.55-14.25,21.85a15.46,15.46,0,0,0,14.25,9.64Z" transform="translate(-134.66 -356.53)"/><path class="cls-8" d="M369.57,368.26h0a3.82,3.82,0,0,0,0,7.64h0a3.82,3.82,0,0,0,0-7.64m0,23.86h0a3.82,3.82,0,0,0,0,7.63h0a3.82,3.82,0,1,0,0-7.63" transform="translate(-134.66 -356.53)"/><circle class="cls-2" cx="248.08" cy="15.85" r="3.82"/><circle class="cls-13" cx="248.08" cy="39.01" r="3.82"/><path class="cls-21" d="M407.25,399.42a18.86,18.86,0,0,1-2.64.19,10.23,10.23,0,0,1-11-11.14V360.73h7.63V389a3.31,3.31,0,0,0,.75,2.31c.7.65,2.2.86,4.24.59Z" transform="translate(-134.66 -356.53)"/><path class="cls-4" d="M402.92,395.64a3.82,3.82,0,1,1,3.82,3.82,3.82,3.82,0,0,1-3.82-3.82Z" transform="translate(-134.66 -356.53)"/><circle class="cls-6" cx="262.77" cy="4.2" r="3.82"/><path class="cls-22" d="M445.58,395.42" transform="translate(-134.66 -356.53)"/><path class="cls-22" d="M445.58,391.63V362.21a3.82,3.82,0,1,0-7.63,0v33.21Z" transform="translate(-134.66 -356.53)"/><path class="cls-23" d="M475.94,378.81a22.34,22.34,0,0,0-1.37-7.78,20.29,20.29,0,0,0-2.71-5,18.65,18.65,0,0,0-6.48-5.53,19.08,19.08,0,0,0-8.7-2.06H441.76a3.82,3.82,0,0,0,0,7.64h14.9a11.44,11.44,0,0,1,4.73,1,10.66,10.66,0,0,1,2.81,1.84,12.09,12.09,0,0,1,3,4.26,14.75,14.75,0,0,1,1.11,5.71h0v0a3.82,3.82,0,1,0,7.64,0v0Z" transform="translate(-134.66 -356.53)"/><circle class="cls-24" cx="337.46" cy="22.3" r="3.82"/><path class="cls-25" d="M441.76,358.39a3.82,3.82,0,0,0,0,7.64h3.82v-3.82a3.82,3.82,0,0,0-3.82-3.82" transform="translate(-134.66 -356.53)"/><path class="cls-26" d="M475.94,378.83v0h0a3.82,3.82,0,0,0-7.63,0h0c0,6.95-4.49,12.78-11.64,12.79h-14.9a3.82,3.82,0,0,0,0,7.63h14.91c11.18,0,19.26-9,19.27-20.4Z" transform="translate(-134.66 -356.53)"/><path class="cls-27" d="M445.58,391.6h-3.82a3.82,3.82,0,0,0,0,7.63h0a3.82,3.82,0,0,0,3.82-3.81V391.6" transform="translate(-134.66 -356.53)"/><path class="cls-28" d="M472.12,375a3.82,3.82,0,0,0-3.82,3.81h0a3.82,3.82,0,1,0,7.64,0h0a3.82,3.82,0,0,0-3.82-3.81" transform="translate(-134.66 -356.53)"/><circle class="cls-29" cx="307.1" cy="5.64" r="3.82"/><circle class="cls-30" cx="307.1" cy="38.89" r="3.82"/><path class="cls-6" d="M506.58,384.26a8,8,0,0,0-.38-2.46,7.89,7.89,0,0,0-1.06-2.16,8.59,8.59,0,0,0-3.78-3,8.94,8.94,0,0,0-5.95-.28,8.43,8.43,0,0,0-2.25,1.06,8.34,8.34,0,0,0-3.09,3.67,8,8,0,0,0-.67,3.21h-7.63a15.73,15.73,0,0,1,2.8-9,16.31,16.31,0,0,1,13.42-7h0a16.54,16.54,0,0,1,4.8.71,16.33,16.33,0,0,1,4.24,2,16,16,0,0,1,5.89,7,15.65,15.65,0,0,1,1.29,6.24Z" transform="translate(-134.66 -356.53)"/><path class="cls-19" d="M514.21,384.26a3.82,3.82,0,0,1-7.63,0h0a8.59,8.59,0,0,1-17.18,0h0a3.82,3.82,0,0,1-7.63,0A16.09,16.09,0,0,0,498,400.21h0a16.09,16.09,0,0,0,16.22-15.95" transform="translate(-134.66 -356.53)"/><path class="cls-14" d="M485.59,380.44a3.82,3.82,0,0,0-3.82,3.82h0a3.82,3.82,0,0,0,7.63,0h0a3.81,3.81,0,0,0-3.81-3.82" transform="translate(-134.66 -356.53)"/><path class="cls-31" d="M510.4,380.44a3.82,3.82,0,0,0-3.82,3.82h0a3.82,3.82,0,0,0,7.63,0h0a3.82,3.82,0,0,0-3.81-3.82" transform="translate(-134.66 -356.53)"/><path class="cls-11" d="M542.34,377.6c-5.52-5-14.64-1.24-14.65,6.12h-7.63c0-14,17-21.13,27.38-11.79Z" transform="translate(-134.66 -356.53)"/><path class="cls-7" d="M542.22,389.94a8.9,8.9,0,0,1-5.82,2.15,8.91,8.91,0,0,1-3.42-.67,8.71,8.71,0,0,1-3.83-3.06,8.06,8.06,0,0,1-1.46-4.64h-7.63a15.62,15.62,0,0,0,1.3,6.26,16,16,0,0,0,5.94,7,16.2,16.2,0,0,0,4.27,2,16.39,16.39,0,0,0,4.82.71h0a16.38,16.38,0,0,0,10.82-4Z" transform="translate(-134.66 -356.53)"/><path class="cls-12" d="M523.88,379.9a3.82,3.82,0,0,0-3.82,3.82h0a3.82,3.82,0,1,0,7.63,0h0a3.82,3.82,0,0,0-3.81-3.82" transform="translate(-134.66 -356.53)"/><path class="cls-5" d="M540.9,392.82a3.82,3.82,0,1,1,3.82,3.81A3.82,3.82,0,0,1,540.9,392.82Z" transform="translate(-134.66 -356.53)"/><path class="cls-13" d="M541.07,374.76a3.82,3.82,0,1,1,3.82,3.82A3.82,3.82,0,0,1,541.07,374.76Z" transform="translate(-134.66 -356.53)"/><path class="cls-7" d="M578.6,368.43a3.82,3.82,0,0,1,3.82,3.82v23.54a3.82,3.82,0,1,1-7.63,0V372.25A3.82,3.82,0,0,1,578.6,368.43Z" transform="translate(-134.66 -356.53)"/><path class="cls-6" d="M554.55,385.88c0,10.51,11.56,17,20.78,11.88a3.85,3.85,0,0,1-.54-2v-9.91c0,6.8-10.23,8.39-12.34,1.77a6.07,6.07,0,0,1-.27-1.77Z" transform="translate(-134.66 -356.53)"/><path class="cls-8" d="M575.33,397.76a14,14,0,0,0,4.67-4.2,13.4,13.4,0,0,0,2.42-7.68,3.82,3.82,0,1,0-7.63,0v9.91a3.85,3.85,0,0,0,.54,2" transform="translate(-134.66 -356.53)"/><rect class="cls-14" x="419.9" y="15.38" width="7.62" height="13.96"/><path class="cls-10" d="M558.36,389.69a3.82,3.82,0,0,0,3.82-3.81h0a3.82,3.82,0,1,0-7.63,0h0a3.81,3.81,0,0,0,3.81,3.81" transform="translate(-134.66 -356.53)"/><path class="cls-32" d="M554.55,372.23a3.82,3.82,0,1,1,3.81,3.81A3.82,3.82,0,0,1,554.55,372.23Z" transform="translate(-134.66 -356.53)"/><path class="cls-31" d="M574.79,372.23A3.82,3.82,0,1,1,578.6,376a3.82,3.82,0,0,1-3.81-3.81Z" transform="translate(-134.66 -356.53)"/><path class="cls-4" d="M592.06,399.21h0a3.82,3.82,0,0,1-3.82-3.82V371.85a3.82,3.82,0,1,1,7.63,0v23.54A3.81,3.81,0,0,1,592.06,399.21Z" transform="translate(-134.66 -356.53)"/><path class="cls-14" d="M602.21,368.12a14.17,14.17,0,0,0-6.88,1.76,3.78,3.78,0,0,1,.54,2v9.92c0-6.8,10.23-8.41,12.34-1.77a5.66,5.66,0,0,1,.27,1.77l3.83-9.39a14,14,0,0,0-10.1-4.26Z" transform="translate(-134.66 -356.53)"/><path class="cls-15" d="M595.33,369.88a13.61,13.61,0,0,0-7.09,11.89,3.82,3.82,0,0,0,7.63,0v-9.92a3.78,3.78,0,0,0-.54-2" transform="translate(-134.66 -356.53)"/><rect class="cls-2" x="473.82" y="25.24" width="7.63" height="13.66"/><rect class="cls-33" x="494.06" y="25.24" width="7.63" height="13.66"/><path class="cls-7" d="M616.12,381.77h0c0-6.79,10.22-8.42,12.33-1.77a5.66,5.66,0,0,1,.27,1.77h7.64a13.76,13.76,0,0,0-13.91-13.65,14.1,14.1,0,0,0-10.14,4.26Z" transform="translate(-134.66 -356.53)"/><path class="cls-34" d="M615,376.42a13.37,13.37,0,0,0-2.7-4,14.56,14.56,0,0,0-1.41,1.71,13.38,13.38,0,0,0-1.78,3.59,13.51,13.51,0,0,0-.64,4.09,3.82,3.82,0,0,0,7.64,0A13.51,13.51,0,0,0,615,376.42Z" transform="translate(-134.66 -356.53)"/><path class="cls-35" d="M632.54,378a3.82,3.82,0,0,0-3.82,3.82h0a3.82,3.82,0,0,0,7.64,0h0a3.82,3.82,0,0,0-3.82-3.82" transform="translate(-134.66 -356.53)"/><path class="cls-13" d="M588.24,395.42a3.82,3.82,0,1,1,3.82,3.81A3.82,3.82,0,0,1,588.24,395.42Z" transform="translate(-134.66 -356.53)"/><path class="cls-18" d="M628.72,395.42a3.82,3.82,0,1,1,3.82,3.81A3.82,3.82,0,0,1,628.72,395.42Z" transform="translate(-134.66 -356.53)"/><path class="cls-5" d="M608.48,395.42a3.82,3.82,0,1,1,3.82,3.81A3.82,3.82,0,0,1,608.48,395.42Z" transform="translate(-134.66 -356.53)"/><path class="cls-6" d="M649.19,383.82h0a9.78,9.78,0,0,0,.71,3.77,7,7,0,0,0,1.94,2.68,7.21,7.21,0,0,0,2,1.18,10,10,0,0,0,3.82.68h0a8.64,8.64,0,0,0,3-.6,9.16,9.16,0,0,0,2.72-1.65l5.09,5.68a16.36,16.36,0,0,1-5,3.08,16,16,0,0,1-5.82,1.12h0a17.84,17.84,0,0,1-5.71-.88,15,15,0,0,1-4.73-2.55,14.55,14.55,0,0,1-2.42-2.48,15.4,15.4,0,0,1-2.18-4,17.42,17.42,0,0,1-1-6Z" transform="translate(-134.66 -356.53)"/><path class="cls-7" d="M656.88,367.87h0c-8.36,0-15.31,7.16-15.31,15.95h7.64c0-4.62,3.56-8.31,7.68-8.31A7.38,7.38,0,0,1,664,380l8.4,3.82c0-8.9-6.43-15.95-15.49-15.95" transform="translate(-134.66 -356.53)"/><path class="cls-8" d="M645.37,380a3.82,3.82,0,0,0-3.82,3.82h0a3.82,3.82,0,1,0,3.82-3.82" transform="translate(-134.66 -356.53)"/><path class="cls-9" d="M664,380" transform="translate(-134.66 -356.53)"/><path class="cls-9" d="M664,380h-8.62a3.82,3.82,0,0,0,0,7.63h13.21Z" transform="translate(-134.66 -356.53)"/><path class="cls-10" d="M668.56,380H664l0,.07a9.46,9.46,0,0,1,.74,3.75,3.81,3.81,0,0,0,3.82,3.81h0a3.81,3.81,0,0,0,3.81-3.81h0a3.82,3.82,0,0,0-3.81-3.82" transform="translate(-134.66 -356.53)"/><path class="cls-5" d="M662.13,392.72a3.82,3.82,0,1,1,3.82,3.82A3.81,3.81,0,0,1,662.13,392.72Z" transform="translate(-134.66 -356.53)"/><path class="cls-6" d="M682,399.21a3.81,3.81,0,0,1-3.81-3.82V371.85a3.82,3.82,0,1,1,7.63,0v23.54A3.82,3.82,0,0,1,682,399.21Z" transform="translate(-134.66 -356.53)"/><path class="cls-9" d="M706,381.77c0-10.52-11.57-17-20.79-11.89a3.79,3.79,0,0,1,.55,2v9.92c0-6.81,10.23-8.4,12.33-1.77a5.66,5.66,0,0,1,.28,1.77Z" transform="translate(-134.66 -356.53)"/><path class="cls-17" d="M685.23,369.88a13.87,13.87,0,0,0-4.67,4.21,13.38,13.38,0,0,0-1.78,3.59,13.21,13.21,0,0,0-.63,4.09,3.82,3.82,0,0,0,7.63,0v-9.92a3.79,3.79,0,0,0-.55-2" transform="translate(-134.66 -356.53)"/><rect class="cls-7" x="563.72" y="25.24" width="7.62" height="13.96"/><path class="cls-10" d="M702.2,378a3.81,3.81,0,0,0-3.81,3.82h0a3.82,3.82,0,0,0,7.63,0h0A3.82,3.82,0,0,0,702.2,378" transform="translate(-134.66 -356.53)"/><path class="cls-5" d="M698.39,395.42a3.82,3.82,0,1,1,3.81,3.81A3.81,3.81,0,0,1,698.39,395.42Z" transform="translate(-134.66 -356.53)"/><path class="cls-14" d="M678.15,395.42a3.82,3.82,0,1,1,3.81,3.81A3.81,3.81,0,0,1,678.15,395.42Z" transform="translate(-134.66 -356.53)"/><path class="cls-36" d="M725.12,360.35v28.07c0,3,2,3.5,4.93,3.06l1.11,7.55c-8.78,1.29-13.65-3.72-13.67-10.81V360.35" transform="translate(-134.66 -356.53)"/><path class="cls-33" d="M730.4,367.56h-5.28v7.64h5.28Zm-12.91,0h-2.32a3.82,3.82,0,1,0,0,7.64h2.32v-7.64" transform="translate(-134.66 -356.53)"/><polyline class="cls-37" points="590.46 11.03 582.83 11.03 582.83 18.66 590.46 18.66 590.46 11.03"/><path class="cls-5" d="M717.49,360.35a3.82,3.82,0,1,1,3.82,3.81A3.82,3.82,0,0,1,717.49,360.35Z" transform="translate(-134.66 -356.53)"/><path class="cls-14" d="M726.58,371.38a3.82,3.82,0,1,1,3.82,3.82A3.82,3.82,0,0,1,726.58,371.38Z" transform="translate(-134.66 -356.53)"/><path class="cls-13" d="M726.79,395.25a3.82,3.82,0,1,1,3.82,3.82A3.82,3.82,0,0,1,726.79,395.25Z" transform="translate(-134.66 -356.53)"/><path class="cls-7" d="M763.94,371.54a15.23,15.23,0,0,0-9.44-3.28v7.64a7.72,7.72,0,0,1,6.47,3.54c3.54,5.38-.2,12.68-6.47,12.68v7.63a15.27,15.27,0,0,0,9.46-3.29l.45-.38V371.93Z" transform="translate(-134.66 -356.53)"/><path class="cls-19" d="M771.48,372.38l-7.53-.84h0a3.25,3.25,0,0,0-.1.83c0,24.84-.06,23.45.12,24.07h0l7.5-.92V372.38Z" transform="translate(-134.66 -356.53)"/><path class="cls-20" d="M763.94,371.54a3.86,3.86,0,0,0-.1.84c0,25,0,23.43.12,24.08a15.94,15.94,0,0,0,0-24.92" transform="translate(-134.66 -356.53)"/><polyline class="cls-6" points="619.83 11.73 619.83 11.73 619.83 11.73"/><path class="cls-6" d="M754.49,392.12h0a8.12,8.12,0,0,1,0-16.22v-7.64c-11.1,0-18.5,11.55-14.25,21.85a15.46,15.46,0,0,0,14.25,9.64Z" transform="translate(-134.66 -356.53)"/><path class="cls-8" d="M754.49,368.26h0a3.82,3.82,0,0,0,0,7.64h0a3.82,3.82,0,0,0,0-7.64m0,23.86h0a3.82,3.82,0,0,0,0,7.63h0a3.82,3.82,0,1,0,0-7.63" transform="translate(-134.66 -356.53)"/><path class="cls-2" d="M763.84,372.38a3.82,3.82,0,1,1,3.82,3.81A3.82,3.82,0,0,1,763.84,372.38Z" transform="translate(-134.66 -356.53)"/><path class="cls-13" d="M763.84,395.54a3.82,3.82,0,1,1,3.82,3.82A3.82,3.82,0,0,1,763.84,395.54Z" transform="translate(-134.66 -356.53)"/><path class="cls-36" d="M791,360.35v28.07c0,3,1.94,3.5,4.93,3.06l1.11,7.55c-8.78,1.29-13.66-3.72-13.67-10.81V360.35" transform="translate(-134.66 -356.53)"/><path class="cls-33" d="M796.28,367.56H791v7.64h5.27Zm-12.9,0h-2.33a3.82,3.82,0,0,0,0,7.64h2.33v-7.64" transform="translate(-134.66 -356.53)"/><polyline class="cls-37" points="656.35 11.03 648.71 11.03 648.71 18.66 656.35 18.66 656.35 11.03"/><path class="cls-5" d="M783.38,360.35a3.82,3.82,0,1,1,3.81,3.81A3.82,3.82,0,0,1,783.38,360.35Z" transform="translate(-134.66 -356.53)"/><path class="cls-14" d="M792.47,371.38a3.82,3.82,0,1,1,3.81,3.82A3.82,3.82,0,0,1,792.47,371.38Z" transform="translate(-134.66 -356.53)"/><path class="cls-13" d="M792.68,395.25a3.82,3.82,0,1,1,3.81,3.82A3.82,3.82,0,0,1,792.68,395.25Z" transform="translate(-134.66 -356.53)"/><rect class="cls-13" x="671.32" y="15.82" width="7.63" height="23.06"/><path class="cls-6" d="M806,360.78a3.82,3.82,0,1,1,3.82,3.82A3.81,3.81,0,0,1,806,360.78Z" transform="translate(-134.66 -356.53)"/><path class="cls-4" d="M806,395.42a3.82,3.82,0,1,1,3.82,3.81A3.82,3.82,0,0,1,806,395.42Z" transform="translate(-134.66 -356.53)"/><path class="cls-18" d="M806,372.35a3.82,3.82,0,1,1,3.82,3.82A3.82,3.82,0,0,1,806,372.35Z" transform="translate(-134.66 -356.53)"/><path class="cls-6" d="M845,384.26a8,8,0,0,0-.38-2.46,7.89,7.89,0,0,0-1.06-2.16,8.59,8.59,0,0,0-3.78-3,8.91,8.91,0,0,0-5.94-.28,8.52,8.52,0,0,0-5.35,4.73,8,8,0,0,0-.66,3.21h-7.64a15.73,15.73,0,0,1,2.8-9,16.34,16.34,0,0,1,13.42-7h0a16.35,16.35,0,0,1,9,2.71,16.11,16.11,0,0,1,5.89,7,15.65,15.65,0,0,1,1.29,6.24Z" transform="translate(-134.66 -356.53)"/><path class="cls-19" d="M852.64,384.26a3.82,3.82,0,0,1-7.64,0h0a8.59,8.59,0,0,1-17.17,0h0a3.82,3.82,0,0,1-7.64,0,16.1,16.1,0,0,0,16.22,15.95h0a16.09,16.09,0,0,0,16.23-15.95" transform="translate(-134.66 -356.53)"/><path class="cls-14" d="M824,380.44a3.82,3.82,0,0,0-3.82,3.82h0a3.82,3.82,0,0,0,7.64,0h0a3.82,3.82,0,0,0-3.82-3.82" transform="translate(-134.66 -356.53)"/><path class="cls-31" d="M848.82,380.44a3.82,3.82,0,0,0-3.82,3.82h0a3.82,3.82,0,0,0,7.64,0h0a3.82,3.82,0,0,0-3.82-3.82" transform="translate(-134.66 -356.53)"/><path class="cls-6" d="M862.79,399.21a3.82,3.82,0,0,1-3.82-3.82V371.85a3.82,3.82,0,1,1,7.63,0v23.54A3.81,3.81,0,0,1,862.79,399.21Z" transform="translate(-134.66 -356.53)"/><path class="cls-9" d="M886.85,381.77c0-10.52-11.57-17-20.79-11.89a3.78,3.78,0,0,1,.54,2v9.92c0-6.81,10.23-8.4,12.34-1.77a5.66,5.66,0,0,1,.27,1.77Z" transform="translate(-134.66 -356.53)"/><path class="cls-17" d="M866.06,369.88a13.87,13.87,0,0,0-4.67,4.21,13.38,13.38,0,0,0-1.78,3.59,13.21,13.21,0,0,0-.64,4.09,3.82,3.82,0,0,0,7.63,0v-9.92a3.78,3.78,0,0,0-.54-2" transform="translate(-134.66 -356.53)"/><rect class="cls-7" x="744.55" y="25.24" width="7.62" height="13.96"/><path class="cls-10" d="M883,378a3.82,3.82,0,0,0-3.82,3.82h0a3.82,3.82,0,0,0,7.64,0h0A3.82,3.82,0,0,0,883,378" transform="translate(-134.66 -356.53)"/><path class="cls-5" d="M879.21,395.42a3.82,3.82,0,1,1,3.82,3.81A3.82,3.82,0,0,1,879.21,395.42Z" transform="translate(-134.66 -356.53)"/><path class="cls-14" d="M859,395.42a3.82,3.82,0,1,1,3.82,3.81A3.82,3.82,0,0,1,859,395.42Z" transform="translate(-134.66 -356.53)"/></svg>